<svg viewBox="0 0 600 500" xmlns="http://www.w3.org/2000/svg" xmlns:xlink="http://www.w3.org/1999/xlink" width="600.000000" height="500.000000" fill="none" clip-path="url(#clipPath_307)" customFrame="url(#clipPath_307)">
	<defs>
		<clipPath id="clipPath_307">
			<rect width="600.000000" height="500.000000" x="0.000000" y="0.000000" rx="30.000000" fill="rgb(255,255,255)" />
		</clipPath>
		<clipPath id="clipPath_308">
			<rect width="754.000000" height="675.999817" x="0.000000" y="0.000000" fill="rgb(255,255,255)" transform="matrix(0.984808,0.173648,-0.173648,0.984808,30.3862,-148)" />
		</clipPath>
		<clipPath id="clipPath_309">
			<rect width="160.000000" height="159.999985" x="0.000000" y="0.000000" rx="30.000000" fill="rgb(255,255,255)" transform="matrix(0.984808,0.173648,-0.174411,0.984673,30.5083,-147.979)" />
		</clipPath>
		<clipPath id="clipPath_310">
			<rect width="160.000000" height="159.999985" x="0.000000" y="0.000000" rx="30.000000" fill="rgb(255,255,255)" transform="matrix(0.984808,0.173648,-0.174411,0.984673,200.017,-118.09)" />
		</clipPath>
		<clipPath id="clipPath_311">
			<rect width="160.000000" height="159.999985" x="0.000000" y="0.000000" rx="30.000000" fill="rgb(255,255,255)" transform="matrix(0.984808,0.173648,-0.174411,0.984673,369.526,-88.2002)" />
		</clipPath>
		<clipPath id="clipPath_312">
			<rect width="160.000000" height="159.999985" x="0.000000" y="0.000000" rx="30.000000" fill="rgb(255,255,255)" transform="matrix(0.984808,0.173648,-0.174411,0.984673,539.035,-58.3115)" />
		</clipPath>
		<clipPath id="clipPath_313">
			<rect width="160.000000" height="159.999985" x="0.000000" y="0.000000" rx="30.000000" fill="rgb(255,255,255)" transform="matrix(0.984808,0.173648,-0.174411,0.984673,0.640625,21.4082)" />
		</clipPath>
		<clipPath id="clipPath_314">
			<rect width="160.000000" height="159.999985" x="0.000000" y="0.000000" rx="30.000000" fill="rgb(255,255,255)" transform="matrix(0.984808,0.173648,-0.174411,0.984673,170.149,51.2974)" />
		</clipPath>
		<clipPath id="clipPath_315">
			<rect width="160.000000" height="159.999985" x="0.000000" y="0.000000" rx="30.000000" fill="rgb(255,255,255)" transform="matrix(0.984808,0.173648,-0.174411,0.984673,339.659,81.1865)" />
		</clipPath>
		<clipPath id="clipPath_316">
			<rect width="160.000000" height="159.999985" x="0.000000" y="0.000000" rx="30.000000" fill="rgb(255,255,255)" transform="matrix(0.984808,0.173648,-0.174411,0.984673,509.167,111.075)" />
		</clipPath>
		<clipPath id="clipPath_317">
			<rect width="160.000000" height="159.999985" x="0.000000" y="0.000000" rx="30.000000" fill="rgb(255,255,255)" transform="matrix(0.984808,0.173648,-0.174411,0.984673,-29.2266,190.795)" />
		</clipPath>
		<clipPath id="clipPath_318">
			<rect width="160.000000" height="159.999985" x="0.000000" y="0.000000" rx="30.000000" fill="rgb(255,255,255)" transform="matrix(0.984808,0.173648,-0.174411,0.984673,140.282,220.685)" />
		</clipPath>
		<clipPath id="clipPath_319">
			<rect width="160.000000" height="159.999985" x="0.000000" y="0.000000" rx="30.000000" fill="rgb(255,255,255)" transform="matrix(0.984808,0.173648,-0.174411,0.984673,309.791,250.573)" />
		</clipPath>
		<clipPath id="clipPath_320">
			<rect width="160.000000" height="159.999985" x="0.000000" y="0.000000" rx="30.000000" fill="rgb(255,255,255)" transform="matrix(0.984808,0.173648,-0.174411,0.984673,479.3,280.462)" />
		</clipPath>
		<clipPath id="clipPath_321">
			<rect width="160.000000" height="159.999985" x="0.000000" y="0.000000" rx="30.000000" fill="rgb(255,255,255)" transform="matrix(0.984808,0.173648,-0.174411,0.984673,-59.0942,360.182)" />
		</clipPath>
		<clipPath id="clipPath_322">
			<rect width="160.000000" height="159.999985" x="0.000000" y="0.000000" rx="30.000000" fill="rgb(255,255,255)" transform="matrix(0.984808,0.173648,-0.174411,0.984673,110.415,390.071)" />
		</clipPath>
		<clipPath id="clipPath_323">
			<rect width="160.000000" height="159.999985" x="0.000000" y="0.000000" rx="30.000000" fill="rgb(255,255,255)" transform="matrix(0.984808,0.173648,-0.174411,0.984673,279.924,419.96)" />
		</clipPath>
		<clipPath id="clipPath_324">
			<rect width="160.000000" height="159.999985" x="0.000000" y="0.000000" rx="30.000000" fill="rgb(255,255,255)" transform="matrix(0.984808,0.173648,-0.174411,0.984673,449.433,449.849)" />
		</clipPath>
	</defs>
	<rect id="Обложка карточки" width="600.000000" height="500.000000" x="0.000000" y="0.000000" rx="30.000000" fill="rgb(39,26,88)" />
	<g id="Frame 2043683117" customFrame="url(#clipPath_308)">
		<rect id="Frame 2043683117" width="754.000000" height="675.999817" x="0.000000" y="0.000000" transform="matrix(0.984808,0.173648,-0.173648,0.984808,30.3862,-148)" />
		<g id="Frame 2043683080" customFrame="url(#clipPath_309)">
			<rect id="Frame 2043683080" width="160.000000" height="159.999985" x="0.000000" y="0.000000" rx="30.000000" fill="rgb(217.019,181.817,255)" transform="matrix(0.984808,0.173648,-0.174411,0.984673,30.5083,-147.979)" />
			<rect id="Frame 2043683080" width="159.000000" height="158.999985" x="0.500000" y="0.500000" rx="30.000000" stroke="rgb(39,26,88)" stroke-width="1" transform="matrix(0.984808,0.173648,-0.174411,0.984673,30.5083,-147.979)" />
		</g>
		<g id="Frame 2043683097" customFrame="url(#clipPath_310)">
			<rect id="Frame 2043683097" width="160.000000" height="159.999985" x="0.000000" y="0.000000" rx="30.000000" fill="rgb(31.3615,164.139,108.372)" transform="matrix(0.984808,0.173648,-0.174411,0.984673,200.017,-118.09)" />
			<rect id="Frame 2043683097" width="159.000000" height="158.999985" x="0.500000" y="0.500000" rx="30.000000" stroke="rgb(39,26,88)" stroke-width="1" transform="matrix(0.984808,0.173648,-0.174411,0.984673,200.017,-118.09)" />
		</g>
		<g id="Frame 2043683096" customFrame="url(#clipPath_311)">
			<rect id="Frame 2043683096" width="160.000000" height="159.999985" x="0.000000" y="0.000000" rx="30.000000" fill="rgb(86,94,239)" transform="matrix(0.984808,0.173648,-0.174411,0.984673,369.526,-88.2002)" />
			<rect id="Frame 2043683096" width="159.000000" height="158.999985" x="0.500000" y="0.500000" rx="30.000000" stroke="rgb(39,26,88)" stroke-width="1" transform="matrix(0.984808,0.173648,-0.174411,0.984673,369.526,-88.2002)" />
		</g>
		<g id="Frame 2043683099" customFrame="url(#clipPath_312)">
			<rect id="Frame 2043683099" width="160.000000" height="159.999985" x="0.000000" y="0.000000" rx="30.000000" fill="rgb(0,193,255)" transform="matrix(0.984808,0.173648,-0.174411,0.984673,539.035,-58.3115)" />
			<rect id="Frame 2043683099" width="159.000000" height="158.999985" x="0.500000" y="0.500000" rx="30.000000" stroke="rgb(39,26,88)" stroke-width="1" transform="matrix(0.984808,0.173648,-0.174411,0.984673,539.035,-58.3115)" />
		</g>
		<g id="Frame 2043683103" customFrame="url(#clipPath_313)">
			<rect id="Frame 2043683103" width="160.000000" height="159.999985" x="0.000000" y="0.000000" rx="30.000000" fill="rgb(242.101,79.8018,79.8018)" transform="matrix(0.984808,0.173648,-0.174411,0.984673,0.640625,21.4082)" />
			<rect id="Frame 2043683103" width="159.000000" height="158.999985" x="0.500000" y="0.500000" rx="30.000000" stroke="rgb(39,26,88)" stroke-width="1" transform="matrix(0.984808,0.173648,-0.174411,0.984673,0.640625,21.4082)" />
		</g>
		<g id="Frame 2043683102" customFrame="url(#clipPath_314)">
			<rect id="Frame 2043683102" width="160.000000" height="159.999985" x="0.000000" y="0.000000" rx="30.000000" fill="rgb(255,199,0)" transform="matrix(0.984808,0.173648,-0.174411,0.984673,170.149,51.2974)" />
			<rect id="Frame 2043683102" width="159.000000" height="158.999985" x="0.500000" y="0.500000" rx="30.000000" stroke="rgb(39,26,88)" stroke-width="1" transform="matrix(0.984808,0.173648,-0.174411,0.984673,170.149,51.2974)" />
		</g>
		<g id="Frame 2043683105" customFrame="url(#clipPath_315)">
			<rect id="Frame 2043683105" width="160.000000" height="159.999985" x="0.000000" y="0.000000" rx="30.000000" fill="rgb(153,209,0)" transform="matrix(0.984808,0.173648,-0.174411,0.984673,339.659,81.1865)" />
			<rect id="Frame 2043683105" width="159.000000" height="158.999985" x="0.500000" y="0.500000" rx="30.000000" stroke="rgb(39,26,88)" stroke-width="1" transform="matrix(0.984808,0.173648,-0.174411,0.984673,339.659,81.1865)" />
		</g>
		<g id="Frame 2043683107" customFrame="url(#clipPath_316)">
			<rect id="Frame 2043683107" width="160.000000" height="159.999985" x="0.000000" y="0.000000" rx="30.000000" fill="rgb(173,97,255)" transform="matrix(0.984808,0.173648,-0.174411,0.984673,509.167,111.075)" />
			<rect id="Frame 2043683107" width="159.000000" height="158.999985" x="0.500000" y="0.500000" rx="30.000000" stroke="rgb(39,26,88)" stroke-width="1" transform="matrix(0.984808,0.173648,-0.174411,0.984673,509.167,111.075)" />
		</g>
		<g id="Frame 2043683108" customFrame="url(#clipPath_317)">
			<rect id="Frame 2043683108" width="160.000000" height="159.999985" x="0.000000" y="0.000000" rx="30.000000" fill="rgb(86,94,239)" transform="matrix(0.984808,0.173648,-0.174411,0.984673,-29.2266,190.795)" />
			<rect id="Frame 2043683108" width="159.000000" height="158.999985" x="0.500000" y="0.500000" rx="30.000000" stroke="rgb(39,26,88)" stroke-width="1" transform="matrix(0.984808,0.173648,-0.174411,0.984673,-29.2266,190.795)" />
		</g>
		<g id="Frame 2043683110" customFrame="url(#clipPath_318)">
			<rect id="Frame 2043683110" width="160.000000" height="159.999985" x="0.000000" y="0.000000" rx="30.000000" fill="rgb(0,193,255)" transform="matrix(0.984808,0.173648,-0.174411,0.984673,140.282,220.685)" />
			<rect id="Frame 2043683110" width="159.000000" height="158.999985" x="0.500000" y="0.500000" rx="30.000000" stroke="rgb(39,26,88)" stroke-width="1" transform="matrix(0.984808,0.173648,-0.174411,0.984673,140.282,220.685)" />
		</g>
		<g id="Frame 2043683112" customFrame="url(#clipPath_319)">
			<rect id="Frame 2043683112" width="160.000000" height="159.999985" x="0.000000" y="0.000000" rx="30.000000" fill="rgb(255,109,0)" transform="matrix(0.984808,0.173648,-0.174411,0.984673,309.791,250.573)" />
			<rect id="Frame 2043683112" width="159.000000" height="158.999985" x="0.500000" y="0.500000" rx="30.000000" stroke="rgb(39,26,88)" stroke-width="1" transform="matrix(0.984808,0.173648,-0.174411,0.984673,309.791,250.573)" />
		</g>
		<g id="Frame 2043683111" customFrame="url(#clipPath_320)">
			<rect id="Frame 2043683111" width="160.000000" height="159.999985" x="0.000000" y="0.000000" rx="30.000000" fill="rgb(31.3615,164.139,108.372)" transform="matrix(0.984808,0.173648,-0.174411,0.984673,479.3,280.462)" />
			<rect id="Frame 2043683111" width="159.000000" height="158.999985" x="0.500000" y="0.500000" rx="30.000000" stroke="rgb(39,26,88)" stroke-width="1" transform="matrix(0.984808,0.173648,-0.174411,0.984673,479.3,280.462)" />
		</g>
		<g id="Frame 2043683115" customFrame="url(#clipPath_321)">
			<rect id="Frame 2043683115" width="160.000000" height="159.999985" x="0.000000" y="0.000000" rx="30.000000" fill="rgb(173,97,255)" transform="matrix(0.984808,0.173648,-0.174411,0.984673,-59.0942,360.182)" />
			<rect id="Frame 2043683115" width="159.000000" height="158.999985" x="0.500000" y="0.500000" rx="30.000000" stroke="rgb(39,26,88)" stroke-width="1" transform="matrix(0.984808,0.173648,-0.174411,0.984673,-59.0942,360.182)" />
		</g>
		<g id="Frame 2043683116" customFrame="url(#clipPath_322)">
			<rect id="Frame 2043683116" width="160.000000" height="159.999985" x="0.000000" y="0.000000" rx="30.000000" fill="rgb(153,209,0)" transform="matrix(0.984808,0.173648,-0.174411,0.984673,110.415,390.071)" />
			<rect id="Frame 2043683116" width="159.000000" height="158.999985" x="0.500000" y="0.500000" rx="30.000000" stroke="rgb(39,26,88)" stroke-width="1" transform="matrix(0.984808,0.173648,-0.174411,0.984673,110.415,390.071)" />
		</g>
		<g id="Frame 2043683117" customFrame="url(#clipPath_323)">
			<rect id="Frame 2043683117" width="160.000000" height="159.999985" x="0.000000" y="0.000000" rx="30.000000" fill="rgb(255,199,0)" transform="matrix(0.984808,0.173648,-0.174411,0.984673,279.924,419.96)" />
			<rect id="Frame 2043683117" width="159.000000" height="158.999985" x="0.500000" y="0.500000" rx="30.000000" stroke="rgb(39,26,88)" stroke-width="1" transform="matrix(0.984808,0.173648,-0.174411,0.984673,279.924,419.96)" />
		</g>
		<g id="Frame 2043683118" customFrame="url(#clipPath_324)">
			<rect id="Frame 2043683118" width="160.000000" height="159.999985" x="0.000000" y="0.000000" rx="30.000000" fill="rgb(217.019,181.817,255)" transform="matrix(0.984808,0.173648,-0.174411,0.984673,449.433,449.849)" />
			<rect id="Frame 2043683118" width="159.000000" height="158.999985" x="0.500000" y="0.500000" rx="30.000000" stroke="rgb(39,26,88)" stroke-width="1" transform="matrix(0.984808,0.173648,-0.174411,0.984673,449.433,449.849)" />
		</g>
	</g>
</svg>
