<svg viewBox="0 0 378 314" xmlns="http://www.w3.org/2000/svg" xmlns:xlink="http://www.w3.org/1999/xlink" width="378.000000" height="314.000000" fill="none" clip-path="url(#clipPath_289)" customFrame="url(#clipPath_289)">
	<defs>
		<clipPath id="clipPath_289">
			<rect width="378.000000" height="314.000000" x="0.000000" y="0.000000" rx="30.000000" fill="rgb(255,255,255)" />
		</clipPath>
		<clipPath id="clipPath_290">
			<rect width="478.161682" height="428.696564" x="0.000000" y="0.000000" fill="rgb(255,255,255)" transform="matrix(0.984808,0.173648,-0.173648,0.984808,13.4424,-96)" />
		</clipPath>
		<clipPath id="clipPath_291">
			<rect width="101.466667" height="101.466667" x="0.000000" y="0.000000" rx="19.025000" fill="rgb(255,255,255)" transform="matrix(0.984808,0.173648,-0.174411,0.984673,13.5195,-95.9863)" />
		</clipPath>
		<clipPath id="clipPath_292">
			<rect width="101.466667" height="101.466667" x="0.000000" y="0.000000" rx="19.025000" fill="rgb(255,255,255)" transform="matrix(0.984808,0.173648,-0.174411,0.984673,121.017,-77.0317)" />
		</clipPath>
		<clipPath id="clipPath_293">
			<rect width="101.466667" height="101.466667" x="0.000000" y="0.000000" rx="19.025000" fill="rgb(255,255,255)" transform="matrix(0.984808,0.173648,-0.174411,0.984673,228.514,-58.0771)" />
		</clipPath>
		<clipPath id="clipPath_294">
			<rect width="101.466667" height="101.466667" x="0.000000" y="0.000000" rx="19.025000" fill="rgb(255,255,255)" transform="matrix(0.984808,0.173648,-0.174411,0.984673,336.011,-39.1226)" />
		</clipPath>
		<clipPath id="clipPath_295">
			<rect width="101.466667" height="101.466667" x="0.000000" y="0.000000" rx="19.025000" fill="rgb(255,255,255)" transform="matrix(0.984808,0.173648,-0.174411,0.984673,-5.4209,11.4331)" />
		</clipPath>
		<clipPath id="clipPath_296">
			<rect width="101.466667" height="101.466667" x="0.000000" y="0.000000" rx="19.025000" fill="rgb(255,255,255)" transform="matrix(0.984808,0.173648,-0.174411,0.984673,102.076,30.3877)" />
		</clipPath>
		<clipPath id="clipPath_297">
			<rect width="101.466667" height="101.466667" x="0.000000" y="0.000000" rx="19.025000" fill="rgb(255,255,255)" transform="matrix(0.984808,0.173648,-0.174411,0.984673,209.573,49.3423)" />
		</clipPath>
		<clipPath id="clipPath_298">
			<rect width="101.466667" height="101.466667" x="0.000000" y="0.000000" rx="19.025000" fill="rgb(255,255,255)" transform="matrix(0.984808,0.173648,-0.174411,0.984673,317.069,68.297)" />
		</clipPath>
		<clipPath id="clipPath_299">
			<rect width="101.466667" height="101.466667" x="0.000000" y="0.000000" rx="19.025000" fill="rgb(255,255,255)" transform="matrix(0.984808,0.173648,-0.174411,0.984673,-24.3623,118.853)" />
		</clipPath>
		<clipPath id="clipPath_300">
			<rect width="101.466667" height="101.466667" x="0.000000" y="0.000000" rx="19.025000" fill="rgb(255,255,255)" transform="matrix(0.984808,0.173648,-0.174411,0.984673,83.1348,137.807)" />
		</clipPath>
		<clipPath id="clipPath_301">
			<rect width="101.466667" height="101.466667" x="0.000000" y="0.000000" rx="19.025000" fill="rgb(255,255,255)" transform="matrix(0.984808,0.173648,-0.174411,0.984673,190.632,156.762)" />
		</clipPath>
		<clipPath id="clipPath_302">
			<rect width="101.466667" height="101.466667" x="0.000000" y="0.000000" rx="19.025000" fill="rgb(255,255,255)" transform="matrix(0.984808,0.173648,-0.174411,0.984673,298.129,175.717)" />
		</clipPath>
		<clipPath id="clipPath_303">
			<rect width="101.466667" height="101.466667" x="0.000000" y="0.000000" rx="19.025000" fill="rgb(255,255,255)" transform="matrix(0.984808,0.173648,-0.174411,0.984673,-43.3032,226.272)" />
		</clipPath>
		<clipPath id="clipPath_304">
			<rect width="101.466667" height="101.466667" x="0.000000" y="0.000000" rx="19.025000" fill="rgb(255,255,255)" transform="matrix(0.984808,0.173648,-0.174411,0.984673,64.1938,245.227)" />
		</clipPath>
		<clipPath id="clipPath_305">
			<rect width="101.466667" height="101.466667" x="0.000000" y="0.000000" rx="19.025000" fill="rgb(255,255,255)" transform="matrix(0.984808,0.173648,-0.174411,0.984673,171.69,264.181)" />
		</clipPath>
		<clipPath id="clipPath_306">
			<rect width="101.466667" height="101.466667" x="0.000000" y="0.000000" rx="19.025000" fill="rgb(255,255,255)" transform="matrix(0.984808,0.173648,-0.174411,0.984673,279.188,283.136)" />
		</clipPath>
	</defs>
	<rect id="Обложка карточки" width="378.000000" height="314.000000" x="0.000000" y="0.000000" rx="30.000000" fill="rgb(39,26,88)" />
	<g id="Frame 2043683117" customFrame="url(#clipPath_290)">
		<rect id="Frame 2043683117" width="478.161682" height="428.696564" x="0.000000" y="0.000000" transform="matrix(0.984808,0.173648,-0.173648,0.984808,13.4424,-96)" />
		<g id="Frame 2043683080" customFrame="url(#clipPath_291)">
			<rect id="Frame 2043683080" width="101.466667" height="101.466667" x="0.000000" y="0.000000" rx="19.025000" fill="rgb(217.019,181.817,255)" transform="matrix(0.984808,0.173648,-0.174411,0.984673,13.5195,-95.9863)" />
			<rect id="Frame 2043683080" width="100.966667" height="100.966667" x="0.250000" y="0.250000" rx="19.025000" stroke="rgb(39,26,88)" stroke-width="0.5" transform="matrix(0.984808,0.173648,-0.174411,0.984673,13.5195,-95.9863)" />
		</g>
		<g id="Frame 2043683097" customFrame="url(#clipPath_292)">
			<rect id="Frame 2043683097" width="101.466667" height="101.466667" x="0.000000" y="0.000000" rx="19.025000" fill="rgb(31.3615,164.139,108.372)" transform="matrix(0.984808,0.173648,-0.174411,0.984673,121.017,-77.0317)" />
			<rect id="Frame 2043683097" width="100.966667" height="100.966667" x="0.250000" y="0.250000" rx="19.025000" stroke="rgb(39,26,88)" stroke-width="0.5" transform="matrix(0.984808,0.173648,-0.174411,0.984673,121.017,-77.0317)" />
		</g>
		<g id="Frame 2043683096" customFrame="url(#clipPath_293)">
			<rect id="Frame 2043683096" width="101.466667" height="101.466667" x="0.000000" y="0.000000" rx="19.025000" fill="rgb(86,94,239)" transform="matrix(0.984808,0.173648,-0.174411,0.984673,228.514,-58.0771)" />
			<rect id="Frame 2043683096" width="100.966667" height="100.966667" x="0.250000" y="0.250000" rx="19.025000" stroke="rgb(39,26,88)" stroke-width="0.5" transform="matrix(0.984808,0.173648,-0.174411,0.984673,228.514,-58.0771)" />
		</g>
		<g id="Frame 2043683099" customFrame="url(#clipPath_294)">
			<rect id="Frame 2043683099" width="101.466667" height="101.466667" x="0.000000" y="0.000000" rx="19.025000" fill="rgb(0,193,255)" transform="matrix(0.984808,0.173648,-0.174411,0.984673,336.011,-39.1226)" />
			<rect id="Frame 2043683099" width="100.966667" height="100.966667" x="0.250000" y="0.250000" rx="19.025000" stroke="rgb(39,26,88)" stroke-width="0.5" transform="matrix(0.984808,0.173648,-0.174411,0.984673,336.011,-39.1226)" />
		</g>
		<g id="Frame 2043683103" customFrame="url(#clipPath_295)">
			<rect id="Frame 2043683103" width="101.466667" height="101.466667" x="0.000000" y="0.000000" rx="19.025000" fill="rgb(242.101,79.8018,79.8018)" transform="matrix(0.984808,0.173648,-0.174411,0.984673,-5.4209,11.4331)" />
			<rect id="Frame 2043683103" width="100.966667" height="100.966667" x="0.250000" y="0.250000" rx="19.025000" stroke="rgb(39,26,88)" stroke-width="0.5" transform="matrix(0.984808,0.173648,-0.174411,0.984673,-5.4209,11.4331)" />
		</g>
		<g id="Frame 2043683102" customFrame="url(#clipPath_296)">
			<rect id="Frame 2043683102" width="101.466667" height="101.466667" x="0.000000" y="0.000000" rx="19.025000" fill="rgb(255,199,0)" transform="matrix(0.984808,0.173648,-0.174411,0.984673,102.076,30.3877)" />
			<rect id="Frame 2043683102" width="100.966667" height="100.966667" x="0.250000" y="0.250000" rx="19.025000" stroke="rgb(39,26,88)" stroke-width="0.5" transform="matrix(0.984808,0.173648,-0.174411,0.984673,102.076,30.3877)" />
		</g>
		<g id="Frame 2043683105" customFrame="url(#clipPath_297)">
			<rect id="Frame 2043683105" width="101.466667" height="101.466667" x="0.000000" y="0.000000" rx="19.025000" fill="rgb(153,209,0)" transform="matrix(0.984808,0.173648,-0.174411,0.984673,209.573,49.3423)" />
			<rect id="Frame 2043683105" width="100.966667" height="100.966667" x="0.250000" y="0.250000" rx="19.025000" stroke="rgb(39,26,88)" stroke-width="0.5" transform="matrix(0.984808,0.173648,-0.174411,0.984673,209.573,49.3423)" />
		</g>
		<g id="Frame 2043683107" customFrame="url(#clipPath_298)">
			<rect id="Frame 2043683107" width="101.466667" height="101.466667" x="0.000000" y="0.000000" rx="19.025000" fill="rgb(173,97,255)" transform="matrix(0.984808,0.173648,-0.174411,0.984673,317.069,68.297)" />
			<rect id="Frame 2043683107" width="100.966667" height="100.966667" x="0.250000" y="0.250000" rx="19.025000" stroke="rgb(39,26,88)" stroke-width="0.5" transform="matrix(0.984808,0.173648,-0.174411,0.984673,317.069,68.297)" />
		</g>
		<g id="Frame 2043683108" customFrame="url(#clipPath_299)">
			<rect id="Frame 2043683108" width="101.466667" height="101.466667" x="0.000000" y="0.000000" rx="19.025000" fill="rgb(86,94,239)" transform="matrix(0.984808,0.173648,-0.174411,0.984673,-24.3623,118.853)" />
			<rect id="Frame 2043683108" width="100.966667" height="100.966667" x="0.250000" y="0.250000" rx="19.025000" stroke="rgb(39,26,88)" stroke-width="0.5" transform="matrix(0.984808,0.173648,-0.174411,0.984673,-24.3623,118.853)" />
		</g>
		<g id="Frame 2043683110" customFrame="url(#clipPath_300)">
			<rect id="Frame 2043683110" width="101.466667" height="101.466667" x="0.000000" y="0.000000" rx="19.025000" fill="rgb(0,193,255)" transform="matrix(0.984808,0.173648,-0.174411,0.984673,83.1348,137.807)" />
			<rect id="Frame 2043683110" width="100.966667" height="100.966667" x="0.250000" y="0.250000" rx="19.025000" stroke="rgb(39,26,88)" stroke-width="0.5" transform="matrix(0.984808,0.173648,-0.174411,0.984673,83.1348,137.807)" />
		</g>
		<g id="Frame 2043683112" customFrame="url(#clipPath_301)">
			<rect id="Frame 2043683112" width="101.466667" height="101.466667" x="0.000000" y="0.000000" rx="19.025000" fill="rgb(255,109,0)" transform="matrix(0.984808,0.173648,-0.174411,0.984673,190.632,156.762)" />
			<rect id="Frame 2043683112" width="100.966667" height="100.966667" x="0.250000" y="0.250000" rx="19.025000" stroke="rgb(39,26,88)" stroke-width="0.5" transform="matrix(0.984808,0.173648,-0.174411,0.984673,190.632,156.762)" />
		</g>
		<g id="Frame 2043683111" customFrame="url(#clipPath_302)">
			<rect id="Frame 2043683111" width="101.466667" height="101.466667" x="0.000000" y="0.000000" rx="19.025000" fill="rgb(31.3615,164.139,108.372)" transform="matrix(0.984808,0.173648,-0.174411,0.984673,298.129,175.717)" />
			<rect id="Frame 2043683111" width="100.966667" height="100.966667" x="0.250000" y="0.250000" rx="19.025000" stroke="rgb(39,26,88)" stroke-width="0.5" transform="matrix(0.984808,0.173648,-0.174411,0.984673,298.129,175.717)" />
		</g>
		<g id="Frame 2043683115" customFrame="url(#clipPath_303)">
			<rect id="Frame 2043683115" width="101.466667" height="101.466667" x="0.000000" y="0.000000" rx="19.025000" fill="rgb(173,97,255)" transform="matrix(0.984808,0.173648,-0.174411,0.984673,-43.3032,226.272)" />
			<rect id="Frame 2043683115" width="100.966667" height="100.966667" x="0.250000" y="0.250000" rx="19.025000" stroke="rgb(39,26,88)" stroke-width="0.5" transform="matrix(0.984808,0.173648,-0.174411,0.984673,-43.3032,226.272)" />
		</g>
		<g id="Frame 2043683116" customFrame="url(#clipPath_304)">
			<rect id="Frame 2043683116" width="101.466667" height="101.466667" x="0.000000" y="0.000000" rx="19.025000" fill="rgb(153,209,0)" transform="matrix(0.984808,0.173648,-0.174411,0.984673,64.1938,245.227)" />
			<rect id="Frame 2043683116" width="100.966667" height="100.966667" x="0.250000" y="0.250000" rx="19.025000" stroke="rgb(39,26,88)" stroke-width="0.5" transform="matrix(0.984808,0.173648,-0.174411,0.984673,64.1938,245.227)" />
		</g>
		<g id="Frame 2043683117" customFrame="url(#clipPath_305)">
			<rect id="Frame 2043683117" width="101.466667" height="101.466667" x="0.000000" y="0.000000" rx="19.025000" fill="rgb(255,199,0)" transform="matrix(0.984808,0.173648,-0.174411,0.984673,171.69,264.181)" />
			<rect id="Frame 2043683117" width="100.966667" height="100.966667" x="0.250000" y="0.250000" rx="19.025000" stroke="rgb(39,26,88)" stroke-width="0.5" transform="matrix(0.984808,0.173648,-0.174411,0.984673,171.69,264.181)" />
		</g>
		<g id="Frame 2043683118" customFrame="url(#clipPath_306)">
			<rect id="Frame 2043683118" width="101.466667" height="101.466667" x="0.000000" y="0.000000" rx="19.025000" fill="rgb(217.019,181.817,255)" transform="matrix(0.984808,0.173648,-0.174411,0.984673,279.188,283.136)" />
			<rect id="Frame 2043683118" width="100.966667" height="100.966667" x="0.250000" y="0.250000" rx="19.025000" stroke="rgb(39,26,88)" stroke-width="0.5" transform="matrix(0.984808,0.173648,-0.174411,0.984673,279.188,283.136)" />
		</g>
	</g>
</svg>
